<?xml version="1.0" encoding="UTF-8" standalone="no"?>
<svg
   xmlns:dc="http://purl.org/dc/elements/1.1/"
   xmlns:cc="http://creativecommons.org/ns#"
   xmlns:rdf="http://www.w3.org/1999/02/22-rdf-syntax-ns#"
   xmlns:svg="http://www.w3.org/2000/svg"
   xmlns="http://www.w3.org/2000/svg"
   xmlns:sodipodi="http://sodipodi.sourceforge.net/DTD/sodipodi-0.dtd"
   xmlns:inkscape="http://www.inkscape.org/namespaces/inkscape"
   inkscape:export-ydpi="96"
   inkscape:export-xdpi="96"
   inkscape:export-filename="/home/rhh/Downloads/LogoBrand-Horizontal-20170422.png"
   inkscape:version="1.0beta2 (unknown)"
   sodipodi:docname="CrossCompute-LogoBrand-Horizontal-20200420-LargeText.svg"
   viewBox="0 0 969.62901 125.45588"
   height="125.45587"
   width="969.62897"
   xml:space="preserve"
   id="svg2"
   version="1.1"><metadata
     id="metadata8"><rdf:RDF><cc:Work
         rdf:about=""><dc:format>image/svg+xml</dc:format><dc:type
           rdf:resource="http://purl.org/dc/dcmitype/StillImage" /><dc:title></dc:title></cc:Work></rdf:RDF></metadata><defs
     id="defs6" /><sodipodi:namedview
     inkscape:document-rotation="0"
     inkscape:current-layer="g10"
     inkscape:window-maximized="1"
     inkscape:window-y="27"
     inkscape:window-x="0"
     inkscape:cy="32.188924"
     inkscape:cx="407.99748"
     inkscape:zoom="1"
     fit-margin-bottom="0"
     fit-margin-right="0"
     fit-margin-left="0"
     fit-margin-top="0"
     showgrid="false"
     id="namedview4"
     inkscape:window-height="1016"
     inkscape:window-width="1920"
     inkscape:pageshadow="2"
     inkscape:pageopacity="0"
     guidetolerance="10"
     gridtolerance="10"
     objecttolerance="10"
     borderopacity="1"
     bordercolor="#666666"
     pagecolor="#ffffff" /><g
     transform="matrix(1.3333333,0,0,-1.3333333,-119.48033,188.1838)"
     inkscape:label="LogoBrandSlogan-Horizontal-20170422"
     inkscape:groupmode="layer"
     id="g10"><path
       d="m 297.742,87.777 c -0.625,0.09 -1.441,0.184 -2.054,0.184 0,0 -5.465,0.035 -6.129,0.055 -0.618,0.019 -1.235,-0.207 -1.625,-0.68 -0.071,-0.086 -0.122,-0.168 -0.137,-0.242 -0.883,-3.531 -2.567,-6.438 -5.043,-8.719 -2.309,-2.078 -4.961,-3.316 -7.953,-3.715 -0.598,-0.058 -1.168,-0.086 -1.707,-0.086 -2.282,0 -4.43,0.598 -6.453,1.793 -2.766,1.653 -4.832,4.231 -6.2,7.735 -1.312,3.39 -1.964,7.379 -1.964,11.968 0,3.532 0.539,6.954 1.625,10.258 2.304,6.867 7.121,10.301 14.445,10.301 2.535,0 5.086,-1.27 7.648,-3.805 1.285,-1.254 2.309,-2.519 3.078,-3.8 0.805,-1.36 1.485,-2.512 1.875,-3.309 0.258,-0.524 0.79,-0.852 1.372,-0.836 0.605,0.016 5.687,-0.047 5.687,-0.047 0.996,0 1.867,0.356 2.605,1.07 0.715,0.711 1.071,1.582 1.071,2.606 v 13.336 c 0,0.996 -0.356,1.867 -1.071,2.605 -0.738,0.711 -1.609,1.071 -2.605,1.071 h -2.18 c -1.027,0 -1.894,-0.36 -2.605,-1.071 -0.715,-0.711 -1.07,-1.566 -1.07,-2.562 -3.79,3.078 -8.336,4.613 -13.633,4.613 -5.215,0 -9.891,-1.195 -14.02,-3.59 -4.187,-2.508 -7.48,-6.082 -9.875,-10.726 -2.363,-4.586 -3.547,-9.973 -3.547,-16.157 0,-5.64 1.039,-10.914 3.121,-15.812 2.395,-5.641 6.04,-9.832 10.942,-12.566 3.644,-2.024 7.535,-3.036 11.668,-3.036 0.969,0 1.98,0.059 3.035,0.172 5.269,0.629 9.941,2.649 14.019,6.071 2.907,2.449 5.34,6.054 7.309,10.812 0.938,2.25 1.59,4.141 1.734,4.684 0.012,0.043 0.024,0.195 0.008,0.273 -0.125,0.66 -0.707,1.059 -1.371,1.152"
       style="fill:#448cd2;fill-opacity:1;fill-rule:nonzero;stroke:none"
       id="path14"
       inkscape:connector-curvature="0" /><path
       d="m 333.871,108.723 c -2.707,1.652 -5.371,2.476 -7.992,2.476 -1.738,0 -3.121,-0.383 -4.149,-1.152 -0.824,-0.625 -1.523,-1.039 -2.093,-1.238 -0.571,-0.172 -0.856,-0.102 -0.856,0.215 0,0.792 -1.222,1.195 -3.676,1.195 h -7.949 c -0.996,0 -1.867,-0.356 -2.605,-1.07 -0.715,-0.711 -1.071,-1.583 -1.071,-2.606 v -2.18 c 0,-1 0.274,-1.867 0.813,-2.609 0.543,-0.711 1.199,-1.066 1.969,-1.066 0.765,0 1.422,-0.36 1.965,-1.071 0.539,-0.742 0.812,-1.609 0.812,-2.605 v -17.91 c 0,-1.024 -0.273,-1.895 -0.812,-2.606 -0.543,-0.711 -1.2,-1.066 -1.965,-1.066 -0.77,0 -1.426,-0.36 -1.969,-1.071 -0.539,-0.742 -0.813,-1.609 -0.813,-2.609 v -2.176 c 0,-1.027 0.356,-1.898 1.071,-2.609 0.738,-0.711 1.609,-1.07 2.605,-1.07 h 14.106 c 1.027,0 1.894,0.359 2.605,1.07 0.715,0.711 1.071,1.582 1.071,2.609 v 2.176 c 0,1 -0.274,1.867 -0.813,2.609 -0.512,0.711 -1.152,1.071 -1.922,1.071 -0.742,0 -1.383,0.355 -1.926,1.066 -0.511,0.711 -0.769,1.582 -0.769,2.606 v 9.918 c 0,2.793 0.344,5.328 1.027,7.605 0.656,2.024 1.91,3.234 3.762,3.633 0.484,0.113 0.969,0.172 1.453,0.172 0.883,0 1.762,-0.196 2.562,-0.563 1.25,-0.574 2.063,-0.968 2.438,-1.187 0.512,-0.317 1.195,0.668 2.051,2.949 l 1.109,2.988 c 0.344,0.942 0.516,1.824 0.516,2.653 -0.028,0.796 -0.215,1.281 -0.555,1.453"
       style="fill:#448cd2;fill-opacity:1;fill-rule:nonzero;stroke:none"
       id="path16"
       inkscape:connector-curvature="0" /><path
       d="m 367.336,77.563 c -1.938,-2.219 -4.375,-3.332 -7.309,-3.332 -2.906,0 -5.343,1.093 -7.308,3.289 -2.082,2.394 -3.121,5.945 -3.121,10.644 0,4.672 1.039,8.207 3.121,10.598 1.965,2.222 4.402,3.336 7.308,3.336 2.907,-0.032 5.328,-1.157 7.266,-3.375 2.137,-2.395 3.203,-5.914 3.203,-10.559 0,-4.676 -1.051,-8.207 -3.16,-10.601 z m 7.48,27.656 c -2.507,2.562 -5.812,4.387 -9.918,5.469 -1.593,0.398 -3.347,0.613 -5.257,0.64 -5.414,0 -10.043,-1.679 -13.891,-5.043 -3.02,-2.621 -5.141,-7.207 -6.367,-13.761 -0.457,-2.422 -0.684,-3.973 -0.684,-4.661 0,-7.093 1.965,-12.679 5.899,-16.754 3.277,-3.359 7.422,-5.339 12.437,-5.941 0.91,-0.082 1.809,-0.125 2.692,-0.125 3.847,0 7.421,0.91 10.726,2.734 3.336,1.825 5.871,4.403 7.609,7.735 1.825,3.535 2.735,7.582 2.735,12.137 0,1.027 -0.039,2.097 -0.129,3.207 -0.57,6.125 -2.52,10.914 -5.852,14.363"
       style="fill:#448cd2;fill-opacity:1;fill-rule:nonzero;stroke:none"
       id="path18"
       inkscape:connector-curvature="0" /><path
       d="m 415.289,90.43 c -1.965,0.824 -5.469,1.922 -10.512,3.289 -3.593,0.941 -5.488,1.453 -5.687,1.539 -1.766,0.742 -2.649,1.695 -2.649,2.863 0,1.199 0.727,2.098 2.18,2.692 1.309,0.574 2.949,0.859 4.914,0.859 2.879,0 4.715,-0.758 5.516,-2.27 0.715,-1.324 1.285,-2.546 1.637,-3.41 0.281,-0.695 0.976,-1.121 1.722,-1.058 0.563,0.043 1.309,0.117 2.238,0.238 l 2.778,0.387 c 0.996,0.14 1.851,0.625 2.566,1.453 0.711,0.824 1.067,1.738 1.067,2.734 v 6.41 c 0,1.028 -0.356,1.895 -1.067,2.61 -0.715,0.711 -1.582,1.066 -2.609,1.066 h -0.043 c -0.996,0 -1.91,-0.183 -2.735,-0.555 -0.796,-0.398 -1.253,-0.871 -1.367,-1.41 -2.453,1.965 -5.855,2.949 -10.215,2.949 -4.332,0 -8.066,-1.082 -11.199,-3.25 -3.703,-2.535 -5.554,-5.968 -5.554,-10.3 0,-5.071 2.32,-8.703 6.964,-10.899 1.598,-0.824 4.704,-1.75 9.321,-2.777 3.843,-0.824 6.55,-1.766 8.117,-2.82 0.855,-0.543 1.285,-1.297 1.285,-2.266 0,-1.539 -0.785,-2.734 -2.352,-3.59 -1.453,-0.769 -3.222,-1.152 -5.3,-1.152 -2.508,0 -4.532,0.582 -6.071,1.75 -1.023,0.769 -1.589,1.355 -1.707,1.754 -0.328,1.09 -0.668,2.121 -0.918,2.972 -0.343,1.153 -1.461,1.883 -2.652,1.735 -0.402,-0.051 -0.863,-0.11 -1.387,-0.176 l -2.863,-0.387 c -1,-0.113 -1.855,-0.582 -2.566,-1.41 -0.711,-0.797 -1.071,-1.711 -1.071,-2.734 v -8.078 c 0,-1.028 0.36,-1.895 1.071,-2.606 0.738,-0.715 1.609,-1.07 2.605,-1.07 h 0.043 c 0.996,0 1.91,0.258 2.738,0.769 0.825,0.543 1.325,1.196 1.496,1.965 2.704,-2.422 6.481,-3.633 11.325,-3.633 7.41,0 12.695,2.379 15.855,7.137 1.567,2.367 2.352,4.875 2.352,7.524 0,5.386 -2.422,9.105 -7.266,11.156"
       style="fill:#448cd2;fill-opacity:1;fill-rule:nonzero;stroke:none"
       id="path20"
       inkscape:connector-curvature="0" /><path
       d="m 457.457,90.43 c -1.965,0.824 -5.469,1.922 -10.512,3.289 -3.59,0.941 -5.484,1.453 -5.683,1.539 -1.77,0.742 -2.653,1.695 -2.653,2.863 0,1.199 0.727,2.098 2.18,2.692 1.313,0.574 2.949,0.859 4.914,0.859 2.879,0 4.719,-0.758 5.516,-2.27 0.715,-1.324 1.289,-2.546 1.636,-3.41 0.282,-0.695 0.977,-1.121 1.723,-1.058 0.567,0.043 1.309,0.117 2.238,0.238 l 2.778,0.387 c 1,0.14 1.855,0.625 2.566,1.453 0.711,0.824 1.067,1.738 1.067,2.734 v 6.41 c 0,1.028 -0.356,1.895 -1.067,2.61 -0.711,0.711 -1.582,1.066 -2.609,1.066 h -0.039 c -1,0 -1.91,-0.183 -2.739,-0.555 -0.796,-0.398 -1.253,-0.871 -1.367,-1.41 -2.449,1.965 -5.855,2.949 -10.215,2.949 -4.332,0 -8.062,-1.082 -11.199,-3.25 -3.703,-2.535 -5.554,-5.968 -5.554,-10.3 0,-5.071 2.32,-8.703 6.964,-10.899 1.598,-0.824 4.703,-1.75 9.321,-2.777 3.843,-0.824 6.55,-1.766 8.121,-2.82 0.855,-0.543 1.281,-1.297 1.281,-2.266 0,-1.539 -0.785,-2.734 -2.352,-3.59 -1.453,-0.769 -3.218,-1.152 -5.3,-1.152 -2.504,0 -4.528,0.582 -6.067,1.75 -1.027,0.769 -1.59,1.355 -1.711,1.754 -0.328,1.09 -0.668,2.121 -0.918,2.972 -0.339,1.153 -1.457,1.883 -2.652,1.735 -0.402,-0.051 -0.863,-0.11 -1.387,-0.176 l -2.863,-0.387 c -1,-0.113 -1.855,-0.582 -2.566,-1.41 -0.711,-0.797 -1.067,-1.711 -1.067,-2.734 v -8.078 c 0,-1.028 0.356,-1.895 1.067,-2.606 0.742,-0.715 1.609,-1.07 2.609,-1.07 h 0.043 c 0.996,0 1.906,0.258 2.734,0.769 0.825,0.543 1.325,1.196 1.496,1.965 2.707,-2.422 6.481,-3.633 11.325,-3.633 7.41,0 12.695,2.379 15.855,7.137 1.57,2.367 2.352,4.875 2.352,7.524 0,5.386 -2.422,9.105 -7.266,11.156"
       style="fill:#448cd2;fill-opacity:1;fill-rule:nonzero;stroke:none"
       id="path22"
       inkscape:connector-curvature="0" /><path
       d="m 518.992,87.777 c -0.625,0.09 -1.437,0.184 -2.054,0.184 0,0 -5.461,0.035 -6.129,0.055 -0.614,0.019 -1.231,-0.207 -1.625,-0.68 -0.071,-0.086 -0.122,-0.168 -0.137,-0.242 -0.883,-3.531 -2.567,-6.438 -5.043,-8.719 -2.309,-2.078 -4.961,-3.316 -7.949,-3.715 -0.598,-0.058 -1.172,-0.086 -1.711,-0.086 -2.282,0 -4.43,0.598 -6.453,1.793 -2.766,1.653 -4.829,4.231 -6.2,7.735 -1.308,3.39 -1.964,7.379 -1.964,11.968 0,3.532 0.539,6.954 1.625,10.258 2.308,6.867 7.121,10.301 14.445,10.301 2.535,0 5.086,-1.27 7.652,-3.805 1.281,-1.254 2.305,-2.519 3.074,-3.8 0.809,-1.36 1.485,-2.512 1.875,-3.309 0.258,-0.524 0.79,-0.852 1.372,-0.836 0.609,0.016 5.687,-0.047 5.687,-0.047 0.996,0 1.867,0.356 2.609,1.07 0.711,0.711 1.067,1.582 1.067,2.606 v 13.336 c 0,0.996 -0.356,1.867 -1.067,2.605 -0.742,0.711 -1.613,1.071 -2.609,1.071 h -2.18 c -1.023,0 -1.894,-0.36 -2.605,-1.071 -0.715,-0.711 -1.07,-1.566 -1.07,-2.562 -3.79,3.078 -8.332,4.613 -13.633,4.613 -5.215,0 -9.887,-1.195 -14.02,-3.59 -4.187,-2.508 -7.48,-6.082 -9.875,-10.726 -2.363,-4.586 -3.547,-9.973 -3.547,-16.157 0,-5.64 1.043,-10.914 3.121,-15.812 2.395,-5.641 6.04,-9.832 10.942,-12.566 3.648,-2.024 7.535,-3.036 11.668,-3.036 0.969,0 1.98,0.059 3.035,0.172 5.269,0.629 9.945,2.649 14.019,6.071 2.907,2.449 5.34,6.054 7.309,10.812 0.938,2.25 1.594,4.141 1.734,4.684 0.012,0.043 0.024,0.195 0.008,0.273 -0.125,0.66 -0.703,1.059 -1.371,1.152"
       style="fill:#ee2e21;fill-opacity:1;fill-rule:nonzero;stroke:none"
       id="path24"
       inkscape:connector-curvature="0" /><path
       d="m 553.426,77.563 c -1.938,-2.219 -4.375,-3.332 -7.309,-3.332 -2.906,0 -5.344,1.093 -7.308,3.289 -2.079,2.394 -3.121,5.945 -3.121,10.644 0,4.672 1.042,8.207 3.121,10.598 1.964,2.222 4.402,3.336 7.308,3.336 2.906,-0.032 5.328,-1.157 7.266,-3.375 2.137,-2.395 3.207,-5.914 3.207,-10.559 0,-4.676 -1.055,-8.207 -3.164,-10.601 z m 7.48,27.656 c -2.508,2.562 -5.812,4.387 -9.918,5.469 -1.593,0.398 -3.347,0.613 -5.258,0.64 -5.414,0 -10.042,-1.679 -13.886,-5.043 -3.024,-2.621 -5.246,-5.543 -6.473,-12.094 -0.453,-2.421 -0.582,-5.64 -0.582,-6.328 0,-7.093 1.965,-12.679 5.899,-16.754 3.277,-3.359 7.421,-5.339 12.437,-5.941 0.91,-0.082 1.809,-0.125 2.691,-0.125 3.848,0 7.422,0.91 10.731,2.734 3.332,1.825 5.867,4.403 7.605,7.735 1.825,3.535 2.735,7.582 2.735,12.137 0,1.027 -0.039,2.097 -0.125,3.207 -0.571,6.125 -2.524,10.914 -5.856,14.363"
       style="fill:#ee2e21;fill-opacity:1;fill-rule:nonzero;stroke:none"
       id="path26"
       inkscape:connector-curvature="0" /><path
       d="m 638.992,75.43 c -0.769,0 -1.426,0.355 -1.969,1.066 -0.539,0.711 -0.812,1.582 -0.812,2.606 v 16.586 c 0,4.671 -1.168,8.363 -3.504,11.07 -2.562,2.961 -6.195,4.441 -10.898,4.441 -4.844,0 -8.934,-1.879 -12.266,-5.64 -2.367,3.761 -6.324,5.64 -11.883,5.64 -3.133,0 -5.996,-0.867 -8.59,-2.605 -0.828,-0.57 -1.609,-0.883 -2.351,-0.942 -0.711,-0.027 -1.168,0.215 -1.367,0.727 -0.457,1.227 -1.911,1.84 -4.36,1.84 h -6.156 c -0.996,0 -1.863,-0.356 -2.606,-1.07 -0.71,-0.711 -1.066,-1.583 -1.066,-2.606 v -2.18 c 0,-1 0.297,-1.867 0.895,-2.609 0.597,-0.711 1.328,-1.066 2.179,-1.066 0.856,0 1.582,-0.36 2.18,-1.071 0.598,-0.742 0.898,-1.609 0.898,-2.605 v -17.91 c 0,-1.024 -0.269,-1.895 -0.812,-2.606 -0.543,-0.711 -1.195,-1.066 -1.965,-1.066 -0.769,0 -1.426,-0.36 -1.965,-1.071 -0.543,-0.742 -0.812,-1.609 -0.812,-2.609 v -2.176 c 0,-1.027 0.355,-1.898 1.066,-2.609 0.715,-0.711 1.582,-1.07 2.61,-1.07 h 14.105 c 0.996,0 1.863,0.359 2.605,1.07 0.711,0.711 1.067,1.582 1.067,2.609 v 2.176 c 0,1 -0.27,1.867 -0.809,2.609 -0.543,0.711 -1.183,1.071 -1.926,1.071 -0.769,0 -1.425,0.355 -1.964,1.066 -0.543,0.711 -0.813,1.582 -0.813,2.606 v 9.703 c 0,3.535 0.356,6.199 1.07,7.992 0.539,1.512 1.481,2.707 2.821,3.59 1.336,0.883 2.847,1.324 4.527,1.324 1.539,0 2.766,-0.656 3.676,-1.965 0.484,-0.683 0.797,-1.355 0.941,-2.008 0.598,-2.367 0.899,-4.773 0.899,-7.222 V 69.574 c 0,-1.027 0.355,-1.898 1.066,-2.609 0.711,-0.711 1.582,-1.07 2.609,-1.07 h 8.504 c 1.028,0 1.895,0.359 2.61,1.07 0.711,0.711 1.066,1.582 1.066,2.609 v 2.176 c 0,1 -0.269,1.867 -0.812,2.609 -0.512,0.711 -1.153,1.071 -1.922,1.071 -0.742,0 -1.383,0.355 -1.922,1.066 -0.516,0.711 -0.77,1.582 -0.77,2.606 V 91.41 c 0,3.078 0.653,5.516 1.965,7.313 1.453,1.992 3.531,2.988 6.239,2.988 2.593,0 4.273,-0.98 5.042,-2.949 0.227,-0.656 0.36,-1.223 0.387,-1.707 0.086,-2.453 0.129,-4.903 0.129,-7.352 V 69.574 c 0,-1.027 0.356,-1.898 1.067,-2.609 0.714,-0.711 1.582,-1.07 2.609,-1.07 h 8.59 c 1.027,0 1.894,0.359 2.605,1.07 0.742,0.711 1.113,1.582 1.113,2.609 v 2.176 c 0,1 -0.285,1.867 -0.855,2.609 -0.543,0.711 -1.195,1.071 -1.965,1.071"
       style="fill:#ee2e21;fill-opacity:1;fill-rule:nonzero;stroke:none"
       id="path28"
       inkscape:connector-curvature="0" /><path
       d="m 678.398,77.992 c -1.625,-3.023 -4.062,-4.531 -7.308,-4.531 -2.481,0 -4.606,1.039 -6.371,3.121 -1.852,2.223 -2.778,5.742 -2.778,10.555 0,3.762 0.743,7.012 2.223,9.746 1.711,3.133 4.133,4.699 7.266,4.699 3.078,0 5.414,-1.48 7.008,-4.441 1.398,-2.539 2.097,-5.688 2.097,-9.45 0,-3.871 -0.715,-7.109 -2.137,-9.699 z m 3.887,29.446 c -3.019,2.054 -6.437,3.078 -10.254,3.078 -4.363,0 -8.051,-1.481 -11.074,-4.446 v 0.043 c -0.367,0.942 -1.055,1.754 -2.051,2.438 -0.968,0.656 -1.965,0.984 -2.992,0.984 h -6.152 c -0.996,0 -1.867,-0.359 -2.61,-1.07 -0.711,-0.711 -1.066,-1.582 -1.066,-2.606 v -2.179 c 0,-1 0.297,-1.867 0.898,-2.61 0.598,-0.711 1.309,-1.066 2.137,-1.066 0.852,0 1.567,-0.359 2.137,-1.07 0.597,-0.739 0.894,-1.61 0.894,-2.606 V 62.777 c 0,-1 -0.269,-1.851 -0.808,-2.566 -0.543,-0.742 -1.199,-1.109 -1.969,-1.109 -0.77,0 -1.426,-0.36 -1.965,-1.071 -0.539,-0.711 -0.812,-1.582 -0.812,-2.605 v -2.18 c 0,-1.027 0.355,-1.898 1.07,-2.609 0.711,-0.711 1.582,-1.067 2.605,-1.067 h 14.106 c 0.996,0 1.867,0.356 2.605,1.067 0.715,0.711 1.071,1.582 1.071,2.609 v 2.18 c 0,1.023 -0.274,1.894 -0.813,2.605 -0.543,0.711 -1.183,1.071 -1.926,1.071 -0.769,0 -1.421,0.367 -1.964,1.109 -0.54,0.715 -0.813,1.566 -0.813,2.566 v 4.317 c 2.566,-1.852 5.574,-2.778 9.02,-2.778 3.703,0 7.136,1.04 10.3,3.118 3.079,2.082 5.356,4.843 6.84,8.293 1.649,3.531 2.477,7.507 2.477,11.922 0,4.191 -0.742,8.007 -2.223,11.457 -1.48,3.562 -3.703,6.339 -6.668,8.332"
       style="fill:#ee2e21;fill-opacity:1;fill-rule:nonzero;stroke:none"
       id="path30"
       inkscape:connector-curvature="0" /><path
       d="m 740.027,109.832 h -14.062 c -1.024,0 -1.895,-0.355 -2.606,-1.066 -0.714,-0.715 -1.07,-1.582 -1.07,-2.61 v -2.179 c 0,-0.996 0.258,-1.864 0.77,-2.606 0.543,-0.715 1.183,-1.07 1.925,-1.07 0.739,0 1.379,-0.356 1.922,-1.067 0.512,-0.742 0.77,-1.609 0.77,-2.609 V 86.199 c 0,-3.25 -0.34,-5.687 -1.024,-7.308 -0.574,-1.512 -1.625,-2.696 -3.164,-3.547 -1.484,-0.887 -3.105,-1.328 -4.875,-1.328 -1.652,0 -3.019,0.386 -4.101,1.156 -1.141,0.824 -1.895,1.949 -2.266,3.375 -0.172,0.769 -0.269,1.852 -0.297,3.25 -0.058,2.449 -0.086,4.898 -0.086,7.348 v 7.48 c 0,1 0.254,1.867 0.77,2.609 0.484,0.711 1.066,1.067 1.75,1.067 0.711,0 1.312,0.355 1.797,1.07 0.484,0.742 0.726,1.61 0.726,2.606 v 2.179 c 0,1.028 -0.359,1.895 -1.07,2.61 -0.711,0.711 -1.578,1.066 -2.606,1.066 h -14.105 c -0.996,0 -1.867,-0.355 -2.605,-1.066 -0.715,-0.715 -1.071,-1.582 -1.071,-2.61 v -2.179 c 0,-0.996 0.301,-1.864 0.899,-2.606 0.597,-0.715 1.308,-1.07 2.136,-1.07 0.825,0 1.539,-0.356 2.137,-1.067 0.57,-0.742 0.856,-1.609 0.856,-2.609 V 82.82 c 0,-3.105 0.14,-5.382 0.425,-6.836 0.77,-3.707 2.621,-6.554 5.559,-8.55 2.676,-1.879 5.926,-2.821 9.742,-2.821 4.844,0 8.906,1.641 12.184,4.914 l 0.168,-0.554 c 0.316,-0.938 0.957,-1.754 1.925,-2.434 0.942,-0.687 1.907,-1.027 2.907,-1.027 h 5.64 c 0.996,0 1.852,0.355 2.567,1.07 0.738,0.711 1.109,1.578 1.109,2.606 v 2.179 c 0,0.996 -0.269,1.867 -0.812,2.606 -0.571,0.715 -1.239,1.07 -2.008,1.07 -0.742,0 -1.399,0.356 -1.969,1.07 -0.539,0.711 -0.809,1.578 -0.809,2.606 v 17.906 c 0,1 0.27,1.867 0.809,2.609 0.57,0.711 1.227,1.067 1.969,1.067 0.769,0 1.437,0.355 2.008,1.07 0.543,0.742 0.812,1.61 0.812,2.606 v 2.179 c 0,1.028 -0.371,1.895 -1.109,2.61 -0.715,0.711 -1.571,1.066 -2.567,1.066"
       style="fill:#ee2e21;fill-opacity:1;fill-rule:nonzero;stroke:none"
       id="path32"
       inkscape:connector-curvature="0" /><path
       d="m 767.809,111.117 c -0.997,0 -1.852,0.367 -2.563,1.11 -0.684,0.711 -1.027,1.566 -1.027,2.562 v 8.422 c 0,0.996 -0.285,1.637 -0.856,1.922 -0.57,0.285 -1.254,0.113 -2.051,-0.512 l -4.574,-3.59 c -1.933,-1.511 -2.906,-3.488 -2.906,-5.941 v -0.301 c 0,-0.996 -0.285,-1.851 -0.852,-2.562 -0.574,-0.743 -1.253,-1.11 -2.054,-1.11 -0.824,0 -1.524,-0.359 -2.094,-1.07 -0.57,-0.715 -0.852,-1.582 -0.852,-2.609 v -1.45 c 0,-1.027 0.282,-1.898 0.852,-2.609 0.57,-0.711 1.27,-1.07 2.094,-1.07 0.801,0 1.48,-0.368 2.054,-1.11 0.567,-0.711 0.852,-1.566 0.852,-2.562 V 80.172 c 0,-4.418 0.344,-7.379 1.027,-8.891 1.539,-3.59 4.817,-5.386 9.832,-5.386 h 1.579 c 0.996,0 1.898,0.039 2.609,0.078 0.992,0.058 1.812,0.785 2.008,1.765 0.136,0.707 0.258,1.602 0.258,2.602 l -0.032,2.137 c 0,0.996 -0.051,1.734 -0.394,2.418 0,0.004 -0.004,0.011 -0.008,0.015 -0.262,0.492 -0.781,0.789 -1.336,0.801 l -1.352,0.031 c -1.14,-0.058 -1.824,0.098 -2.05,0.071 -0.828,0.054 -1.356,0.339 -1.582,0.855 l -0.129,0.34 c -0.028,1.851 -0.043,4.004 -0.043,6.457 v 15.172 c 0,0.996 0.343,1.851 1.027,2.562 0.711,0.742 1.566,1.11 2.563,1.11 0.968,0 1.808,0.359 2.523,1.07 0.711,0.711 1.066,1.582 1.066,2.609 v 1.45 c 0,1.027 -0.355,1.894 -1.066,2.609 -0.715,0.711 -1.555,1.07 -2.523,1.07"
       style="fill:#ee2e21;fill-opacity:1;fill-rule:nonzero;stroke:none"
       id="path34"
       inkscape:connector-curvature="0" /><path
       d="m 786.914,93.336 c 0.457,2.449 1.398,4.402 2.82,5.855 1.797,1.938 4.075,2.907 6.84,2.907 2.762,0 4.985,-0.957 6.668,-2.864 0.856,-0.941 1.367,-1.726 1.539,-2.351 0.285,-0.969 0.172,-1.809 -0.343,-2.52 -0.54,-0.687 -1.309,-1.027 -2.305,-1.027 z m 3.25,-8.762 h 22.867 c 1.422,0.114 2.391,0.453 2.903,1.024 0.515,0.57 0.812,1.484 0.898,2.738 0,5.781 -1.48,10.785 -4.445,15 -3.672,5.273 -8.973,7.906 -15.899,7.906 -6.554,0 -11.738,-2.363 -15.554,-7.093 -3.508,-4.301 -5.258,-9.758 -5.258,-16.368 0,-6.672 1.808,-12.07 5.426,-16.199 3.875,-4.363 9.132,-6.539 15.773,-6.539 4.414,0 8.746,1.895 12.992,5.684 1.68,1.879 3.106,3.761 4.274,5.64 0.996,2.137 0.269,3.203 -2.18,3.203 h -7.609 c -1.739,-3.586 -4.215,-5.382 -7.434,-5.382 -3.164,0 -5.703,1.168 -7.609,3.503 -0.997,1.227 -1.625,2.336 -1.883,3.336 -0.254,0.997 -0.114,1.836 0.429,2.52 0.54,0.684 1.309,1.027 2.309,1.027"
       style="fill:#ee2e21;fill-opacity:1;fill-rule:nonzero;stroke:none"
       id="path36"
       inkscape:connector-curvature="0" /><path
       d="m 149.23725,120.02045 c 2.496,-1.0195 4.8145,-2.3905 6.8925,-4.0485 l 11.0565,16.5445 c -4.2715,3.172 -9.084,5.6525 -14.2735,7.2715 -1.4,0.4375 -2.859,-0.492 -3.0565,-1.945 l -2.078,-15.3085 c -0.1445,-1.0745 0.457,-2.1055 1.459,-2.514"
       style="fill:#8f9295;fill-opacity:1;fill-rule:nonzero;stroke:none;stroke-width:0.5"
       id="path74"
       inkscape:connector-curvature="0" /><path
       d="m 149.23725,68.162953 c -1.002,-0.408 -1.6035,-1.441 -1.459,-2.5135 l 2.078,-15.3085 c 0.1975,-1.453 1.6565,-2.383 3.0565,-1.9455 5.1895,1.6195 10.002,4.1 14.2735,7.2715 l -11.0565,16.545 c -2.078,-1.658 -4.3965,-3.029 -6.8925,-4.049"
       style="fill:#8f9295;fill-opacity:1;fill-rule:nonzero;stroke:none;stroke-width:0.5"
       id="path76"
       inkscape:connector-curvature="0" /><path
       d="m 128.20425,68.162953 c -2.4965,1.02 -4.8145,2.391 -6.895,4.049 l -11.0545,-16.545 c 4.2695,-3.1715 9.084,-5.652 14.2735,-7.2715 1.4005,-0.4375 2.8575,0.4925 3.0565,1.9455 l 2.078,15.3085 c 0.145,1.0725 -0.457,2.1055 -1.4585,2.5135"
       style="fill:#8f9295;fill-opacity:1;fill-rule:nonzero;stroke:none;stroke-width:0.5"
       id="path78"
       inkscape:connector-curvature="0" /><path
       d="m 127.58475,137.84295 c -0.199,1.453 -1.656,2.3825 -3.0565,1.945 -5.1895,-1.619 -10.004,-4.0995 -14.2735,-7.2715 l 11.0545,-16.5445 c 2.0805,1.658 4.3985,3.029 6.895,4.0485 1.0015,0.4085 1.6035,1.4395 1.4585,2.514 l -2.078,15.3085"
       style="fill:#8f9295;fill-opacity:1;fill-rule:nonzero;stroke:none;stroke-width:0.5"
       id="path80"
       inkscape:connector-curvature="0" /><path
       d="m 143.50075,138.29195 h -9.404 c -0.6875,0 -1.2425,-0.5565 -1.2425,-1.242 0,-0.6855 0.555,-1.242 1.2425,-1.242 h 9.404 c 0.6855,0 1.2405,0.5565 1.2405,1.242 0,0.6855 -0.555,1.242 -1.2405,1.242"
       style="fill:#8f9295;fill-opacity:1;fill-rule:nonzero;stroke:none;stroke-width:0.5"
       id="path82"
       inkscape:connector-curvature="0" /><path
       d="m 143.99675,130.72545 c 0,0.686 -0.5565,1.2425 -1.242,1.2425 h -7.914 c -0.6855,0 -1.242,-0.5565 -1.242,-1.2425 0,-0.6855 0.5565,-1.242 1.242,-1.242 h 7.914 c 0.6855,0 1.242,0.5565 1.242,1.242"
       style="fill:#8f9295;fill-opacity:1;fill-rule:nonzero;stroke:none;stroke-width:0.5"
       id="path84"
       inkscape:connector-curvature="0" /><path
       d="m 142.11225,125.64345 h -6.629 c -0.6855,0 -1.242,-0.5565 -1.242,-1.242 0,-0.6855 0.5565,-1.24 1.242,-1.24 h 6.629 c 0.6875,0 1.242,0.5545 1.242,1.24 0,0.6855 -0.5545,1.242 -1.242,1.242"
       style="fill:#8f9295;fill-opacity:1;fill-rule:nonzero;stroke:none;stroke-width:0.5"
       id="path86"
       inkscape:connector-curvature="0" /><path
       d="m 143.50075,52.127953 h -9.404 c -0.6875,0 -1.2425,-0.5565 -1.2425,-1.242 0,-0.6855 0.555,-1.2425 1.2425,-1.2425 h 9.404 c 0.6855,0 1.2405,0.557 1.2405,1.2425 0,0.6855 -0.555,1.242 -1.2405,1.242"
       style="fill:#8f9295;fill-opacity:1;fill-rule:nonzero;stroke:none;stroke-width:0.5"
       id="path88"
       inkscape:connector-curvature="0" /><path
       d="m 134.84075,55.967953 h 7.914 c 0.6855,0 1.242,0.5565 1.242,1.242 0,0.6855 -0.5565,1.2425 -1.242,1.2425 h -7.914 c -0.6855,0 -1.242,-0.557 -1.242,-1.2425 0,-0.6855 0.5565,-1.242 1.242,-1.242"
       style="fill:#8f9295;fill-opacity:1;fill-rule:nonzero;stroke:none;stroke-width:0.5"
       id="path90"
       inkscape:connector-curvature="0" /><path
       d="m 142.11225,64.774453 h -6.629 c -0.6855,0 -1.242,-0.5545 -1.242,-1.24 0,-0.6855 0.5565,-1.2425 1.242,-1.2425 h 6.629 c 0.6875,0 1.242,0.557 1.242,1.2425 0,0.6855 -0.5545,1.24 -1.242,1.24"
       style="fill:#8f9295;fill-opacity:1;fill-rule:nonzero;stroke:none;stroke-width:0.5"
       id="path92"
       inkscape:connector-curvature="0" /><path
       d="m 167.18625,132.51645 -11.0565,-16.5445 c 6.4355,-5.133 10.5745,-13.0315 10.594,-21.880997 -0.0195,-8.8475 -4.1585,-16.746 -10.594,-21.879 l 11.0565,-16.545 c 11.748,8.7285 19.381,22.7015 19.4025,38.424 -0.0215,15.724497 -7.6545,29.696997 -19.4025,38.425497"
       style="fill:#ee2e21;fill-opacity:1;fill-rule:nonzero;stroke:none;stroke-width:0.5"
       id="path94"
       inkscape:connector-curvature="0" /><path
       d="m 110.25475,55.666953 11.0545,16.545 c -6.4355,5.133 -10.572,13.0315 -10.5915,21.879 0.0195,8.849497 4.156,16.747997 10.5915,21.880997 l -11.0545,16.5445 c -11.75,-8.7285 -19.383,-22.701 -19.4025,-38.425497 0.0195,-15.7225 7.6525,-29.6955 19.4025,-38.424"
       style="fill:#448cd2;fill-opacity:1;fill-rule:nonzero;stroke:none;stroke-width:0.5"
       id="path96"
       inkscape:connector-curvature="0" /><path
       d="m 171.83475,67.911453 c -0.6405,0.5155 -1.58,0.412 -2.0935,-0.2285 -0.502,-0.627 -1.0275,-1.2465 -1.5645,-1.842 -0.549,-0.6135 -0.498,-1.5545 0.113,-2.1035 0.2855,-0.256 0.641,-0.383 0.9965,-0.383 0.406,0 0.814,0.168 1.107,0.4945 0.5725,0.6365 1.135,1.2985 1.672,1.9685 0.5155,0.6405 0.412,1.58 -0.2305,2.094"
       style="fill:#d52b23;fill-opacity:1;fill-rule:nonzero;stroke:none;stroke-width:0.5"
       id="path98"
       inkscape:connector-curvature="0" /><path
       d="m 180.54775,106.63795 c -0.215,0.793 -1.035,1.2615 -1.828,1.045 -0.795,-0.215 -1.262,-1.0335 -1.047,-1.8285 0.996,-3.666 1.502,-7.468497 1.502,-11.304497 0,-8.121 -2.2755,-16.0275 -6.582,-22.8655 -0.4395,-0.697 -0.2285,-1.617 0.4665,-2.0545 0.2465,-0.156 0.5215,-0.2305 0.793,-0.2305 0.4945,0 0.9785,0.246 1.262,0.6975 4.6055,7.3125 7.041,15.7695 7.041,24.453 0,4.0995 -0.541,8.165997 -1.6075,12.087997"
       style="fill:#d52b23;fill-opacity:1;fill-rule:nonzero;stroke:none;stroke-width:0.5"
       id="path100"
       inkscape:connector-curvature="0" /><path
       d="m 108.80775,124.41695 c -0.2855,0.256 -0.641,0.383 -0.9945,0.383 -0.408,0 -0.8165,-0.168 -1.109,-0.494 -0.5725,-0.637 -1.135,-1.299 -1.672,-1.969 -0.514,-0.6425 -0.412,-1.58 0.2305,-2.0935 0.6405,-0.516 1.58,-0.4125 2.0935,0.2285 0.502,0.627 1.0275,1.246 1.5645,1.8415 0.549,0.6135 0.498,1.555 -0.113,2.1035"
       style="fill:#579dda;fill-opacity:1;fill-rule:nonzero;stroke:none;stroke-width:0.5"
       id="path102"
       inkscape:connector-curvature="0" /><path
       d="m 104.03775,118.52445 c -0.246,0.1565 -0.5215,0.2305 -0.7925,0.2305 -0.4945,0 -0.979,-0.248 -1.262,-0.697 -4.6055,-7.3145 -7.041,-15.77 -7.041,-24.453497 0,-4.0995 0.541,-8.166 1.6075,-12.086 0.215,-0.7945 1.035,-1.2635 1.828,-1.0465 0.795,0.2145 1.262,1.033 1.047,1.828 -0.996,3.666 -1.502,7.4685 -1.502,11.3045 0,8.120997 2.2755,16.027497 6.582,22.865497 0.4395,0.697 0.2285,1.617 -0.467,2.0545"
       style="fill:#579dda;fill-opacity:1;fill-rule:nonzero;stroke:none;stroke-width:0.5"
       id="path104"
       inkscape:connector-curvature="0" /><path
       d="m 167.48325,57.457953 -9.699,14.514 c 6.4665,5.57 10.162,13.568 10.1815,22.123 -0.0195,8.548497 -3.715,16.546497 -10.1815,22.116997 l 9.699,14.5135 c 0.7385,-0.582 1.457,-1.1875 2.1565,-1.8105 l -8.1195,-11.373 c -0.3985,-0.5585 -0.2695,-1.334 0.289,-1.7325 0.219,-0.156 0.471,-0.2305 0.721,-0.2305 0.3865,0 0.7695,0.18 1.0115,0.52 l 7.924,11.1015 c 0.576,-0.5705 1.133,-1.1565 1.6755,-1.754 l -6.2245,-8.416 c -0.408,-0.553 -0.291,-1.33 0.26,-1.7385 0.2225,-0.164 0.4805,-0.242 0.738,-0.242 0.379,0 0.756,0.174 0.998,0.504 l 5.889,7.961 c 0.504,-0.6195 0.99,-1.25 1.461,-1.8945 l -3.8205,-4.883 c -0.422,-0.541 -0.326,-1.3205 0.213,-1.744 0.2265,-0.178 0.496,-0.264 0.7635,-0.264 0.369,0 0.7345,0.164 0.9785,0.4765 l 3.344,4.2755 c 4.875,-7.488 7.5935,-16.3105 7.6055,-25.388497 -0.0175,-14.2245 -6.672,-27.8205 -17.8635,-36.635 z m -14.9395,-7.877 c -0.4355,-0.1365 -0.7775,0.0195 -0.9435,0.125 -0.166,0.1055 -0.451,0.35 -0.5135,0.803 l -2.078,15.3085 c -0.0685,0.508 0.2165,1 0.697,1.1975 2.168,0.8845 4.223,2.029 6.125,3.41 l 9.6585,-14.453 c -3.973,-2.799 -8.3225,-4.9475 -12.9455,-6.391 z m 3.287,68.177997 c -1.902,1.381 -3.957,2.5255 -6.125,3.41 -0.4805,0.1975 -0.7655,0.6895 -0.697,1.1975 l 2.078,15.3085 c 0.0625,0.453 0.3475,0.697 0.5135,0.8025 0.1195,0.0765 0.3325,0.178 0.604,0.178 0.105,0 0.2185,-0.014 0.3395,-0.053 4.623,-1.443 8.9725,-3.5895 12.9455,-6.3905 z m 26.559,-1.262 c -3.254,6.303 -7.916,11.916 -13.5255,16.297 l 0.01,0.014 -0.947,0.705 -1.049,0.777 -0.01,-0.0155 c -4.17,2.9315 -8.7345,5.1855 -13.586,6.6995 -1.016,0.316 -2.1155,0.1695 -3.014,-0.4025 -0.9,-0.5725 -1.498,-1.506 -1.6425,-2.5625 l -2.078,-15.3085 c -0.2205,-1.631 0.6915,-3.205 2.2185,-3.83 2.3635,-0.965 4.5805,-2.268 6.59,-3.8695 6.416,-5.117 10.1075,-12.74 10.125,-20.905997 -0.0175,-8.172 -3.709,-15.795 -10.125,-20.912 -2.0095,-1.604 -4.2265,-2.9045 -6.59,-3.8695 -1.527,-0.625 -2.439,-2.199 -2.2185,-3.83 l 2.078,-15.3085 c 0.1445,-1.0565 0.7425,-1.9905 1.6425,-2.5645 0.586,-0.373 1.258,-0.5645 1.9375,-0.5645 0.3615,0 0.725,0.0545 1.0785,0.164 4.8495,1.5155 9.414,3.7675 13.584,6.6995 l 0.01,-0.016 1.049,0.7775 0.947,0.705 -0.01,0.014 c 5.6095,4.3805 10.2715,9.992 13.5255,16.2965 3.5995,6.9785 5.4295,14.516 5.441,22.4065 -0.0115,7.888497 -1.8415,15.425497 -5.441,22.403997"
       style="fill:#293f51;fill-opacity:1;fill-rule:nonzero;stroke:none;stroke-width:0.5"
       id="path106"
       inkscape:connector-curvature="0" /><path
       d="m 128.43275,65.817453 -2.0785,-15.3085 c -0.0625,-0.453 -0.3495,-0.6975 -0.5135,-0.803 -0.166,-0.1055 -0.508,-0.2615 -0.9435,-0.125 -4.623,1.4435 -8.9725,3.592 -12.945,6.391 l 9.656,14.453 c 1.9025,-1.381 3.957,-2.5255 6.127,-3.41 0.4785,-0.1975 0.7655,-0.6895 0.6975,-1.1975 z m -18.475,-8.3595 c -0.74,0.582 -1.457,1.1875 -2.156,1.8105 l 8.119,11.373 c 0.3985,0.559 0.2675,1.334 -0.289,1.7325 -0.5585,0.3985 -1.334,0.2695 -1.7325,-0.289 l -7.9255,-11.1015 c -0.5745,0.5705 -1.131,1.1565 -1.674,1.754 l 6.2245,8.416 c 0.4065,0.5525 0.291,1.33 -0.2615,1.7365 -0.551,0.408 -1.3285,0.293 -1.7365,-0.26 l -5.8865,-7.961 c -0.504,0.619 -0.9905,1.25 -1.461,1.8945 l 3.82,4.883 c 0.422,0.541 0.3265,1.32 -0.2125,1.744 -0.541,0.422 -1.3205,0.326 -1.7445,-0.213 l -3.3435,-4.275 c -4.873,7.488 -7.592,16.3105 -7.6055,25.3885 0.0195,14.224497 6.6735,27.820497 17.865,36.634497 l 9.6975,-14.5135 c -6.465,-5.5705 -10.16,-13.5685 -10.18,-22.122997 0.02,-8.549 3.715,-16.547 10.18,-22.117 z m 14.9395,81.144497 c 0.4355,0.137 0.7775,-0.0195 0.9435,-0.125 0.164,-0.1055 0.451,-0.3495 0.5135,-0.8025 l 2.0785,-15.3085 c 0.068,-0.508 -0.219,-1 -0.6975,-1.1975 -2.17,-0.8845 -4.2245,-2.029 -6.127,-3.41 l -9.656,14.453 c 3.9725,2.801 8.322,4.9475 12.945,6.3905 z m 3.7755,-69.288997 c -2.3635,0.965 -4.58,2.2655 -6.588,3.8695 -6.418,5.117 -10.1075,12.74 -10.127,20.906 0.0195,8.171997 3.709,15.794997 10.127,20.911997 2.008,1.6015 4.2245,2.9045 6.588,3.8695 1.5295,0.625 2.4415,2.199 2.2185,3.83 l -2.078,15.3085 c -0.1425,1.0565 -0.74,1.99 -1.6405,2.5625 -0.8985,0.574 -1.998,0.7185 -3.0155,0.4025 -4.8515,-1.514 -9.414,-3.768 -13.584,-6.6995 l -0.012,0.0155 -1.0465,-0.777 -0.9475,-0.705 0.01,-0.014 c -5.6095,-4.381 -10.2715,-9.994 -13.5255,-16.297 -3.5995,-6.9785 -5.4315,-14.5155 -5.4415,-22.405997 0.01,-7.8885 1.842,-15.426 5.4415,-22.4045 3.254,-6.3045 7.916,-11.916 13.5235,-16.2965 l -0.008,-0.014 0.9475,-0.705 1.0465,-0.7775 0.012,0.016 c 4.17,-2.932 8.7325,-5.184 13.584,-6.6995 0.3535,-0.1095 0.7165,-0.164 1.078,-0.164 0.6775,0 1.3515,0.1915 1.9375,0.5645 0.9005,0.574 1.498,1.508 1.6405,2.5645 l 2.078,15.3085 c 0.223,1.631 -0.689,3.205 -2.2185,3.83"
       style="fill:#293f51;fill-opacity:1;fill-rule:nonzero;stroke:none;stroke-width:0.5"
       id="path108"
       inkscape:connector-curvature="0" /><path
       d="m 148.13575,87.106453 c -0.1035,0.459 -0.504,0.789 -0.9745,0.805 l -3.1645,0.0565 v 4.195 c 0,1.143 -0.912,2.0785 -2.0565,2.1075 l -9.7655,0.2425 v 3.6345 h 2.6095 c 1.3965,0 2.527,1.131 2.527,2.527497 v 2.8535 h 4.797 c 0,0 1.9475,1.1015 2.754,2.4685 4.1015,-2.195 6.8965,-6.517497 6.8965,-11.483997 0,-3.3105 -1.244,-6.336 -3.287,-8.635 z m -10.828,-5.529 c -6.504,0.7165 -11.5805,6.244 -11.5805,12.9355 0,1.125 0.1445,2.2165 0.4125,3.2575 l 7.459,-7.9 c 0,0 0,-2.211 0,-2.836 0,-0.6075 0.9605,-1.551 1.701,-1.551 h 1.623 c 0.213,0 0.385,-0.172 0.385,-0.3845 z m 16.9355,12.9355 c 0,8.546497 -6.9535,15.497997 -15.5,15.497997 -8.545,0 -15.498,-6.9515 -15.498,-15.497997 0,-8.547 6.953,-15.5 15.498,-15.5 8.5465,0 15.5,6.953 15.5,15.5"
       style="fill:#293f51;fill-opacity:1;fill-rule:nonzero;stroke:none;stroke-width:0.5"
       id="path110"
       inkscape:connector-curvature="0" /></g></svg>
